<?xml version="1.0" encoding="utf-8"?><svg version="1.1" xmlns="http://www.w3.org/2000/svg"
  xmlns:xlink="http://www.w3.org/1999/xlink" x="0px" y="0px" viewBox="0 0 32 32"
  style="enable-background:new 0 0 32 32;" xml:space="preserve">
  <g>
    <style type="text/css">
      .contact-icon {
        fill: #4f90cd;
      }
    </style>
    <rect x="2.35651" y="11.32468" class="contact-icon" width="6.00109" height="18.05317" />
    <path class="contact-icon"
      d="M5.39704,2.62215C3.3433,2.62215,2,3.96927,2,5.74069c0,1.73286,1.30442,3.12087,3.31733,3.12087h0.04012c2.09352,0,3.39548-1.38775,3.39548-3.12087C8.71347,3.96927,7.45097,2.62215,5.39704,2.62215z" />
    <path class="contact-icon"
      d="M23.08936,10.90059c-3.188,0-4.6123,1.7547-5.40982,2.98305v0.05832h-0.03946c0.01147-0.01853,0.02728-0.0392,0.03946-0.05832v-2.55896h-6.00278c0.08087,1.69483,0,18.05317,0,18.05317h6.00336V19.29579c0-0.54015,0.04076-1.07731,0.19906-1.46318c0.43414-1.07952,1.42099-2.19545,3.07921-2.19545c2.17231,0,3.04033,1.65588,3.04033,4.0822v9.65848H30V19.02604C30,13.4808,27.03905,10.90052,23.08936,10.90059z" />
  </g>
</svg>