<?xml version="1.0" encoding="utf-8"?><svg  version="1.1" xmlns="http://www.w3.org/2000/svg" xmlns:xlink="http://www.w3.org/1999/xlink" x="0px" y="0px" viewBox="0 0 32 32" style="enable-background:new 0 0 32 32;" xml:space="preserve"><g><style type="text/css">.contact-icon{fill:#FFFFFF;}</style><path class="contact-icon" d="M8.83919,32h14.32161c0.78444,0,1.42036-0.63592,1.42036-1.4203V1.42036C24.58117,0.63592,23.94524,0,23.16081,0H8.83919C8.05476,0,7.41884,0.63592,7.41884,1.42036V30.5797C7.41884,31.36408,8.05476,32,8.83919,32z M16.00985,30.92491c-1.09912,0-1.99016-0.89103-1.99016-1.99015c0-1.09912,0.89103-1.99007,1.99016-1.99007S18,27.83563,18,28.93475C18,30.03387,17.10897,30.92491,16.00985,30.92491z M9.32213,3.69039h13.35574v22.1458H9.32213V3.69039z"/></g></svg>