<svg xmlns="http://www.w3.org/2000/svg" viewBox="0 0 32 32">
  <defs>
    <style>
      .cls-2 {
        fill: #4f90cd
      }
    </style>
  </defs>
  <g id="website-full" transform="translate(-58.924)">
    <g id="Group_742" data-name="Group 742" transform="translate(64.143 3.489)">
      <path id="Path_2914" data-name="Path 2914" class="cls-2"
        d="m81.83 25.246 2.145-1.715-7.275-2.038 2.037 7.276 1.716-2.145 3.484 3.483a.427.427 0 0 0 .6 0l.773-.774a.424.424 0 0 0 0-.6z"
        transform="translate(-70.068 -10.653)" />
      <path id="Path_2915" data-name="Path 2915" class="cls-2"
        d="M88.324 10.019V7.591a2.358 2.358 0 0 0-2.358-2.358H69.111a2.358 2.358 0 0 0-2.358 2.358v2.428a.666.666 0 0 0 .667.667h20.238a.666.666 0 0 0 .666-.667zM74.206 7.352h1.333a.667.667 0 0 1 0 1.333h-1.333a.667.667 0 0 1 0-1.333zm-4 0h1.333a.667.667 0 0 1 0 1.333h-1.333a.667.667 0 0 1 0-1.333z"
        transform="translate(-66.753 -5.233)" />
      <path id="Path_2916" data-name="Path 2916" class="cls-2"
        d="M66.753 16.079V31.3a2.358 2.358 0 0 0 2.358 2.358h16.856a2.358 2.358 0 0 0 2.357-2.358V16.079a.666.666 0 0 0-.667-.667H67.42a.667.667 0 0 0-.667.667zM82.941 28.25l-.773.773a1.761 1.761 0 0 1-2.489 0l-2.431-2.43-.931 1.164a1.214 1.214 0 0 1-2.117-.43l-2.158-7.707a1.214 1.214 0 0 1 1.5-1.5l7.7 2.158a1.214 1.214 0 0 1 .431 2.116l-1.164.931 2.429 2.431a1.758 1.758 0 0 1 0 2.49z"
        transform="translate(-66.753 -8.626)" />
    </g>
  </g>
</svg>