<?xml version="1.0" encoding="utf-8"?><svg version="1.1" xmlns="http://www.w3.org/2000/svg"
  xmlns:xlink="http://www.w3.org/1999/xlink" x="0px" y="0px" viewBox="0 0 32 32"
  style="enable-background:new 0 0 32 32;" xml:space="preserve">
  <g>
    <style type="text/css">
      .contact-icon {
        fill: #4f90cd;
      }
    </style>
    <path class="contact-icon"
      d="M24.03099,2.53722c-2.45157-1.43069-5.12804-2.14586-8.03113-2.14586c-2.90273,0-5.58006,0.71538-8.03113,2.14586C5.5173,3.96777,3.57656,5.90865,2.14579,8.36008C0.71524,10.81151,0,13.48841,0,16.39078c0,3.48647,1.01714,6.62157,3.05199,9.40611c2.03471,2.78475,4.66315,4.71175,7.88525,5.78109c0.37502,0.0696,0.65269,0.02063,0.83322-0.14567c0.18061-0.16652,0.27077-0.37502,0.27077-0.62472c0-0.0417-0.00359-0.4165-0.0105-1.12498c-0.00719-0.70848-0.0105-1.32652-0.0105-1.85382l-0.4792,0.0829c-0.30549,0.05594-0.69094,0.07966-1.15626,0.0729c-0.46511-0.00647-0.9479-0.05522-1.44788-0.14581c-0.50012-0.08987-0.9653-0.29816-1.39582-0.62458c-0.43038-0.32634-0.73595-0.75363-0.91648-1.281l-0.20836-0.47941c-0.13883-0.31915-0.35748-0.67376-0.65614-1.06236c-0.29866-0.38897-0.60063-0.65269-0.9062-0.79152l-0.14588-0.10447c-0.09713-0.06938-0.18737-0.15307-0.27077-0.25021c-0.08333-0.09713-0.14574-0.19427-0.18737-0.29162c-0.04177-0.09742-0.00719-0.1773,0.10411-0.24c0.1113-0.06269,0.3124-0.09311,0.60416-0.09311l0.4165,0.06219c0.27781,0.05572,0.62141,0.22202,1.0313,0.49991c0.40967,0.27774,0.74637,0.63881,1.01031,1.083c0.31959,0.56965,0.70467,1.00362,1.15626,1.30229c0.45123,0.29866,0.9062,0.44778,1.36448,0.44778c0.45821,0,0.854-0.03473,1.18746-0.10389c0.3331-0.06945,0.64564-0.17385,0.9374-0.31261c0.12503-0.93093,0.46532-1.6461,1.02073-2.14601c-0.7916-0.08319-1.50324-0.2085-2.13537-0.37509c-0.63177-0.1668-1.2846-0.4375-1.95814-0.81288c-0.67383-0.3748-1.23283-0.84027-1.67716-1.39561c-0.4444-0.55556-0.80907-1.28496-1.09357-2.18749c-0.28464-0.90289-0.427-1.94448-0.427-3.12497c0-1.68083,0.54872-3.11116,1.64589-4.2918c-0.51393-1.26368-0.46547-2.68028,0.14574-4.24967c0.40277-0.12517,1.0001-0.03128,1.79169,0.28112c0.79167,0.31254,1.37138,0.58029,1.73957,0.80224c0.36819,0.22188,0.66319,0.40996,0.88549,0.56246c1.29186-0.361,2.62506-0.54153,3.99996-0.54153s2.70839,0.18054,4.00032,0.54153l0.79167-0.49976c0.54132-0.33346,1.18064-0.6391,1.91629-0.91684c0.73609-0.27767,1.29898-0.35417,1.68809-0.22899c0.62472,1.56946,0.68037,2.98599,0.1663,4.24967c1.09709,1.18063,1.64603,2.61133,1.64603,4.2918c0,1.18049-0.14286,2.22531-0.42707,3.13518c-0.28457,0.91001-0.6524,1.63862-1.10363,2.18749c-0.45173,0.5488-1.01434,1.01067-1.6878,1.3854c-0.67368,0.37509-1.32673,0.64579-1.9585,0.81259c-0.63205,0.1668-1.3437,0.29219-2.13529,0.37552c0.72193,0.62472,1.083,1.61087,1.083,2.95802v4.3954c0,0.2497,0.08685,0.4582,0.26063,0.62479c0.17363,0.1663,0.44778,0.21526,0.8228,0.14559c3.22253-1.06926,5.85097-2.99627,7.88561-5.78102C30.9825,23.01171,32,19.87667,32,16.3902c-0.00072-2.90201-0.71639-5.5787-2.14629-8.03012C28.42294,5.90865,26.4822,3.96784,24.03099,2.53722z" />
  </g>
</svg>