<?xml version="1.0" encoding="utf-8"?><svg version="1.1" xmlns="http://www.w3.org/2000/svg"
  xmlns:xlink="http://www.w3.org/1999/xlink" x="0px" y="0px" viewBox="0 0 32 32"
  style="enable-background:new 0 0 32 32;" xml:space="preserve">
  <g>
    <style type="text/css">
      .contact-icon {
        fill: #4f90cd;
      }
    </style>
    <path class="contact-icon"
      d="M32,6.07878c-1.17783,0.5219-2.44156,0.87585-3.7693,1.03385c1.35573-0.81185,2.39353-2.09964,2.88543-3.62934c-1.27176,0.75186-2.67552,1.29781-4.17129,1.5937c-1.19773-1.2777-2.9014-2.07358-4.79106-2.07358c-3.62533,0-6.56482,2.93941-6.56482,6.56274c0,0.51389,0.05799,1.01581,0.17003,1.49576C10.30406,10.78794,5.46696,8.17442,2.22958,4.20315C1.66365,5.171,1.3417,6.29872,1.3417,7.50253c0,2.27762,1.15979,4.2872,2.91951,5.46295c-1.07581-0.03594-2.08761-0.3319-2.97342-0.82381v0.08197c0,3.17939,2.26359,5.83287,5.265,6.43681c-0.54996,0.14798-1.12979,0.22995-1.72973,0.22995c-0.4239,0-0.83383-0.04196-1.23575-0.12199c0.83583,2.60952,3.25943,4.50713,6.1309,4.55917c-2.24562,1.75965-5.07707,2.80547-8.15251,2.80547c-0.52985,0-1.05182-0.032-1.56571-0.08999c2.90548,1.86568,6.35484,2.95352,10.06215,2.95352c12.07574,0,18.67649-10.00215,18.67649-18.67649l-0.02198-0.84986C30.00638,8.55035,31.12214,7.39457,32,6.07878" />
  </g>
</svg>